# xmcd
#
# Track frame offsets:
# 150
# 14775
# 33997
# 54099
# 70238
# 85186
# 104474
# 118606
# 139011
# 157600
# 171954
# 189731
# 204252
# 223269
# 243308
# 259399
# 274449
# 293605
# 307732
#
# Disc length: 4370 seconds
#
#
# Revision: 0
# Processed by: cddbd v1.5.2PL0 Copyright (c) Steve Scherf et al.
# Submitted via: FreeRIP 2.944 
#
DISCID=11111013
DTITLE=24 Horas - Opus Dei - 24 Horas - Opus Dei
DYEAR=1900
DGENRE=Gospel
TTITLE0=Apaixonado por Jesus
TTITLE1=Promessa na Biblia
TTITLE2=O Encontro
TTITLE3=Vem Viver
TTITLE4=Decisao
TTITLE5=A Vitoria
TTITLE6=24 Horas
TTITLE7=Homens de Valor
TTITLE8=Vai Dando Gloria
TTITLE9=Dia de Festa
TTITLE10=Eterno Amor
TTITLE11=Play Back Opus Dei 1
TTITLE12=Play Back Opus Dei 2
TTITLE13=Play Back Opus Dei 3
TTITLE14=Play Back Opus Dei 4
TTITLE15=Play Back Opus Dei 5
TTITLE16=Play Back Opus Dei 6
TTITLE17=Play Back Opus Dei 7
TTITLE18=Play Back Opus Dei 8
EXTD=
EXTT0=
EXTT1=
EXTT2=
EXTT3=
EXTT4=
EXTT5=
EXTT6=
EXTT7=
EXTT8=
EXTT9=
EXTT10=
EXTT11=
EXTT12=
EXTT13=
EXTT14=
EXTT15=
EXTT16=
EXTT17=
EXTT18=
PLAYORDER=
